<svg version="1.2" xmlns="http://www.w3.org/2000/svg" viewBox="0 0 30 30" width="30" height="30">
	<title>777-svg</title>
	<style>
		.s0 { fill: #fff209 } 
	</style>
	<path id="Layer" fill-rule="evenodd" class="s0" d="m5.5 12.3q0.2 0 0.4 0 0.3 0.1 0.5 0.1 0.2 0.1 0.4 0.1 0.2 0.1 0.4 0.2h0.2l0.6 0.2q0.1-0.1 0.2-0.1 0.1-0.1 0.2-0.1 0.1-0.1 0.2-0.1 0.1 0 0.2 0 0.3 0 0.5 0.1 0.3 0.1 0.5 0.3 0.2 0.2 0.3 0.5 0.1 0.2 0.1 0.5 0 0.1 0 0.2 0 0 0 0.1 0 0.1 0 0.2-0.1 0-0.1 0.1h0.1l-0.3 0.7-0.3 0.5h-0.1l-0.6 1.2q-0.3 0.4-0.5 0.9-0.2 0.5-0.3 1-0.1 0.5-0.1 1.1 0 0.5 0.1 1 0 0.2 0.1 0.3 0 0.2 0 0.3 0.1 0.2 0.1 0.4 0 0.1 0 0.3 0 0.6-0.2 1.1-0.2 0.5-0.5 0.9-0.4 0.4-0.9 0.6-0.5 0.3-1.1 0.3c-1.7 0-2.8-1.3-2.8-3.2q0-0.6 0.2-1.2 0.2-0.6 0.4-1.1 0.3-0.5 0.7-1 0.3-0.5 0.8-0.9 0.1-0.1 0.1-0.2 0.1-0.1 0.2-0.2 0.1-0.1 0.2-0.2 0.1-0.1 0.2-0.2h-0.5l-1.2-0.2v1.1h-2.9l0.3-1.2 0.5-3.4v-0.9h2.4l1.3-0.2m1.5 4.6c-1 1.8-3.2 3-3.2 5.2q0 0.4 0.1 0.8 0.1 0.3 0.3 0.6 0.3 0.3 0.7 0.5 0.3 0.2 0.7 0.2 0.3 0 0.6-0.2 0.3-0.1 0.6-0.4 0.2-0.2 0.3-0.5 0.1-0.4 0.1-0.7 0-0.2 0-0.3 0-0.2-0.1-0.3 0-0.2 0-0.3-0.1-0.2-0.1-0.3-0.1-0.6-0.1-1.2 0.1-0.6 0.2-1.2 0.1-0.6 0.3-1.1 0.3-0.6 0.6-1.1zm-1.4-3.7c-1.2 0-1.5 0.4-2.3 1.1v-0.9h-0.6l-0.5 3.3h0.6c0-0.5 0.1-1 0.8-1h0.3c0.9 0 2 0.5 2.8 0.5q0.3 0 0.6 0 0.3-0.1 0.5-0.2 0.3-0.1 0.5-0.3 0.2-0.2 0.4-0.4 0.1-0.2 0.1-0.3 0.1-0.2 0.1-0.3 0.1-0.2 0.1-0.4 0.1-0.1 0.1-0.3c0-0.2-0.2-0.4-0.3-0.4-0.1 0-0.1 0.1-0.2 0.2l-0.5 0.2-1-0.3q-0.2-0.1-0.4-0.1-0.2 0-0.4-0.1-0.2 0-0.4-0.1-0.2 0-0.4 0z"/>
	<path id="Layer" fill-rule="evenodd" class="s0" d="m15.3 3.4q0.3 0 0.6 0.1 0.3 0 0.7 0.1 0.3 0.1 0.6 0.2l0.5 0.2 1.6 0.5q0 0 0 0 0-0.1 0-0.1 0 0 0.1 0 0 0 0 0h0.1q0.1-0.1 0.2-0.2 0.1-0.1 0.3-0.1 0.1-0.1 0.2-0.1 0.2-0.1 0.3-0.1 0.3 0 0.6 0.1 0.3 0.2 0.6 0.4 0.2 0.2 0.3 0.6 0.1 0.3 0.1 0.6-0.1 0.4-0.1 0.7-0.1 0.4-0.3 0.8-0.1 0.3-0.2 0.6-0.2 0.4-0.4 0.7l-1.1 2.1q-0.5 1.1-0.9 2.3-0.4 1.2-0.6 2.4-0.2 1.3-0.2 2.5 0 1.3 0.2 2.5v0.4q0.1 0.2 0.1 0.5 0.1 0.2 0.1 0.5 0.1 0.2 0.1 0.5 0 0.2 0 0.5 0 0.8-0.3 1.6-0.2 0.7-0.8 1.3-0.5 0.6-1.3 0.9-0.7 0.4-1.5 0.4c-2.4 0-4-1.3-4-4.7 0-3.4 2.4-7.1 4.3-10.1l1-1.7-1.9-0.4-2.2-0.3h-0.7c-0.1 0-0.1 0.1-0.1 0.6v1.3h-3.3v-1.2l0.9-5.7v-0.9h3.1v0.2q0.3-0.2 0.6-0.3 0.3-0.1 0.7-0.2 0.3 0 0.6-0.1 0.4 0 0.7 0 0.3 0 0.7 0.1zm3.1 6.8q-0.2 0-0.4 0.1-0.2 0-0.5 0.1-0.2 0-0.4 0c-1.7 3-5.4 7.8-5.4 11.6 0 1.8 1 3.6 3 3.6q0.6 0 1.1-0.3 0.6-0.2 1-0.7 0.4-0.4 0.5-1 0.2-0.5 0.2-1.1 0-0.3 0-0.6 0-0.2-0.1-0.5 0-0.3-0.1-0.6 0-0.2-0.1-0.5-0.2-1.3-0.2-2.6 0-1.4 0.3-2.7 0.2-1.3 0.5-2.5 0.4-1.3 1-2.5-0.2 0.1-0.4 0.2zm-7.8-3.9l0.2-1.6h-1l-0.8 5.7h1v-0.2c0-0.9 0.2-1.6 1.3-1.8h0.6c1.6 0 3.3 0.7 4.8 0.7 1.5 0 2.7-0.4 3.3-1.4q0.1-0.3 0.3-0.5 0.1-0.3 0.2-0.6 0.1-0.3 0.2-0.6 0.1-0.3 0.1-0.6c0-0.3-0.3-0.6-0.5-0.6-0.2 0-0.3 0.1-0.4 0.3q-0.1 0.1-0.2 0.1-0.1 0.1-0.2 0.1-0.1 0.1-0.2 0.1-0.1 0-0.2 0l-1.8-0.4q-0.3-0.1-0.7-0.2-0.3-0.1-0.6-0.2-0.4-0.1-0.7-0.1-0.4-0.1-0.7-0.1c-2 0-2.5 0.7-4 1.9z"/>
	<path id="Layer" fill-rule="evenodd" class="s0" d="m24.3 12.4q0.2 0 0.4 0 0.3 0.1 0.5 0.1 0.2 0.1 0.4 0.1 0.2 0.1 0.4 0.2h0.2l0.6 0.2q0.1-0.1 0.2-0.1 0.1-0.1 0.2-0.1 0.1-0.1 0.2-0.1 0.1 0 0.2 0 0.3 0 0.5 0.1 0.3 0.1 0.5 0.3 0.2 0.2 0.3 0.5 0.1 0.2 0.1 0.5 0 0.1 0 0.2 0 0 0 0.1 0 0.1 0 0.2-0.1 0-0.1 0.1h0.1l-0.4 0.7-0.2 0.5h-0.1l-0.6 1.2q-0.3 0.4-0.5 0.9-0.2 0.5-0.3 1-0.1 0.5-0.1 1 0 0.5 0.1 1 0 0.2 0.1 0.3 0 0.2 0 0.3 0.1 0.2 0.1 0.4 0 0.1 0 0.3 0 0.6-0.2 1.1-0.2 0.5-0.6 0.9-0.4 0.4-0.9 0.7-0.5 0.2-1.1 0.2c-1.6 0-2.7-1.3-2.7-3.2q0-0.6 0.2-1.2 0.2-0.6 0.4-1.1 0.3-0.5 0.7-1 0.3-0.5 0.8-0.9l0.6-0.8h-0.4l-1.2-0.2v1.1h-2.9l0.8-4.8v-0.9h2.5l1.3-0.2m2.2 4.4q-0.1 0.1-0.2 0.1-0.1 0.1-0.3 0.1-0.1 0-0.2 0c-1.1 1.8-3.2 4.1-3.2 5.2 0 1.1 0.6 2.1 1.7 2.1q0.4 0 0.7-0.1 0.3-0.2 0.5-0.4 0.3-0.3 0.4-0.6 0.1-0.3 0.1-0.7 0-0.2 0-0.3 0-0.2-0.1-0.3 0-0.2 0-0.3-0.1-0.2-0.1-0.3-0.1-0.6-0.1-1.2 0-0.6 0.2-1.2 0.1-0.6 0.3-1.1 0.2-0.6 0.5-1.1-0.1 0.1-0.2 0.1zm-2.2-3.3c-1.2 0-1.5 0.4-2.3 1.1v-0.9h-0.6l-0.5 3.3h0.6c0-0.5 0.1-1 0.8-1h0.3c0.9 0 1.9 0.5 2.8 0.5q0.3 0 0.6 0 0.2-0.1 0.5-0.2 0.2-0.1 0.4-0.3 0.2-0.2 0.4-0.4 0.1-0.1 0.2-0.3 0.1-0.2 0.1-0.3 0.1-0.2 0.1-0.4 0.1-0.1 0.1-0.3c0-0.2-0.1-0.4-0.3-0.4l-0.2 0.2-0.5 0.2-1-0.3q-0.2-0.1-0.4-0.1-0.2 0-0.4-0.1-0.2 0-0.4-0.1-0.2 0-0.4 0z"/>
</svg>