<svg version="1.2" xmlns="http://www.w3.org/2000/svg" viewBox="0 0 30 30" width="30" height="30">
	<title>FAV-svg</title>
	<style>
		.s0 { fill: #9b9b9b } 
	</style>
	<path id="Layer" fill-rule="evenodd" class="s0" d="m22.8 28.5l-0.8-0.2-6.8-3.6h-0.4l-6.8 3.6c-0.5 0.3-1.2 0.3-1.7-0.1-0.5-0.3-0.7-0.9-0.6-1.5l1.3-7.7c0-0.1 0-0.2-0.1-0.3l-5.5-5.4c-0.5-0.4-0.6-1-0.4-1.6 0.1-0.6 0.6-1 1.2-1.1l7.7-1.1 0.3-0.2 3.4-6.9c0.2-0.6 0.8-0.9 1.4-0.9 0.6 0 1.2 0.3 1.4 0.9l3.4 6.9 0.3 0.2 7.7 1.1c0.6 0.1 1.1 0.5 1.2 1.1 0.2 0.6 0.1 1.2-0.4 1.6l-5.5 5.4c-0.1 0.1-0.1 0.2-0.1 0.3l1.3 7.7c0.1 0.6-0.1 1.2-0.6 1.5q-0.5 0.3-0.9 0.3zm-7.8-5.1l0.7 0.2 6.9 3.6c0.2 0.1 0.3 0.1 0.4 0 0.1-0.1 0.1-0.2 0.1-0.3l-1.3-7.7c-0.1-0.5 0.1-1 0.4-1.3l5.6-5.5c0.1-0.1 0.1-0.2 0.1-0.3q0-0.2-0.3-0.3l-7.7-1.1c-0.5-0.1-0.9-0.4-1.2-0.8l-3.4-7c-0.1-0.2-0.2-0.2-0.3-0.2-0.1 0-0.2 0-0.3 0.2l-3.4 7c-0.3 0.4-0.7 0.7-1.2 0.8l-7.7 1.1-0.3 0.3c0 0.1 0 0.2 0.1 0.3l5.6 5.5c0.3 0.3 0.5 0.8 0.4 1.3l-1.3 7.7c0 0.1 0 0.2 0.1 0.3 0.1 0.1 0.2 0.1 0.4 0l6.9-3.6z"/>
</svg>