<svg version="1.2" xmlns="http://www.w3.org/2000/svg" viewBox="0 0 30 30" width="30" height="30">
	<title>table games-svg</title>
	<style>
		.s0 { fill: #9b9b9b } 
	</style>
	<path id="Layer" fill-rule="evenodd" class="s0" d="m17 10.2c-0.8 0-1.5-0.3-2-0.9-0.7 0.7-1.7 1-2.6 0.8-1.3-0.3-2.2-1.3-2.4-2.6-0.2-1.1-0.1-3.8 4.7-6.4q0.3-0.1 0.6 0c4.8 2.6 4.9 5.3 4.7 6.4-0.2 1.3-1.1 2.3-2.4 2.6zm-2-2.6q0.3 0 0.6 0.3c0.3 0.7 1 1.1 1.7 1 0.8-0.2 1.3-0.8 1.4-1.6 0.3-1.6-1.1-3.4-3.7-4.9-2.6 1.5-4 3.3-3.7 4.9 0.1 0.8 0.6 1.4 1.4 1.6 0.7 0.1 1.4-0.3 1.7-1q0.3-0.3 0.6-0.3z"/>
	<path id="Layer" class="s0" d="m18 12.7h-0.2l-1-0.3c-1.1-0.5-2.5-0.5-3.6 0l-1 0.3c-0.3 0.1-0.7 0-0.8-0.3-0.1-0.3 0-0.7 0.3-0.9l1-0.3c1.5-0.7 3.1-0.7 4.6 0l1 0.3c0.3 0.2 0.4 0.6 0.3 0.9-0.1 0.2-0.4 0.3-0.6 0.3z"/>
	<path id="Layer" fill-rule="evenodd" class="s0" d="m0.4 14.4c0-0.4 0.2-0.7 0.6-0.7h28c0.4 0 0.6 0.3 0.6 0.7 0 8.1-6.5 14.6-14.6 14.6-8.1 0-14.6-6.5-14.6-14.6zm1.3 0.6c0 7.3 6 13.3 13.3 13.3 7.3 0 13.3-6 13.3-13.3z"/>
	<path id="Layer" class="s0" d="m15 26.8c-0.3 0-0.6-0.3-0.6-0.6v-2.8c0-0.4 0.2-0.7 0.6-0.7 0.4 0 0.6 0.3 0.6 0.7v2.8c0 0.3-0.3 0.6-0.6 0.6z"/>
	<path id="Layer" class="s0" d="m21.3 25.2l-0.6-0.2-1.6-2.2c-0.2-0.3-0.1-0.7 0.2-0.9 0.2-0.2 0.6-0.2 0.8 0 0 0 0 0 0.1 0.1l1.6 2.2c0.2 0.3 0.1 0.7-0.2 0.9z"/>
	<path id="Layer" class="s0" d="m25.3 20h-0.2l-3.1-1c-0.3-0.1-0.5-0.4-0.4-0.7 0 0 0 0 0-0.1 0.1-0.3 0.5-0.5 0.8-0.4l3.1 1c0.3 0.1 0.5 0.5 0.4 0.8-0.1 0.3-0.3 0.4-0.6 0.4z"/>
	<path id="Layer" class="s0" d="m4.7 20c-0.3 0-0.6-0.2-0.6-0.5-0.1-0.3 0.1-0.7 0.4-0.8l2.9-1c0.3-0.1 0.7 0 0.8 0.4v0.1c0.1 0.3 0 0.7-0.3 0.8 0 0 0 0-0.1 0l-2.9 0.9z"/>
	<path id="Layer" class="s0" d="m8.8 25.2l-0.4-0.2c-0.3-0.2-0.3-0.6-0.2-0.8 0 0 0 0 0.1-0.1l1.7-2.4c0.2-0.3 0.7-0.4 1-0.2 0.2 0.3 0.3 0.7 0.1 0.9l-1.8 2.5c-0.1 0.2-0.3 0.3-0.5 0.3z"/>
	<path id="Layer" class="s0" d="m15 21.6c-3.2 0-5.8-2.1-6-4.9 0.1-0.3 0.3-0.6 0.6-0.7 0.4 0 0.6 0.3 0.7 0.6 0.2 2.1 2.2 3.7 4.7 3.7 2.5 0 4.5-1.6 4.7-3.7 0.1-0.3 0.3-0.6 0.7-0.6 0.3 0.1 0.5 0.4 0.6 0.7-0.2 2.8-2.8 4.9-6 4.9z"/>
</svg>