<svg version="1.2" xmlns="http://www.w3.org/2000/svg" viewBox="0 0 30 30" width="30" height="30">
	<title>cards-svg</title>
	<style>
		.s0 { fill: #fff209 } 
	</style>
	<path id="Layer" fill-rule="evenodd" class="s0" d="m20 28.6h-9.7q-0.2 0-0.3 0-0.2 0-0.3-0.1-0.2 0-0.3-0.1-0.2 0-0.3-0.1-0.4-0.2-0.7-0.5-0.4-0.3-0.6-0.6-0.2-0.4-0.4-0.8-0.1-0.5-0.1-0.9v-20.1q0-0.1 0-0.1 0-0.1 0-0.1 0-0.1 0-0.1 0.1-0.1 0.1-0.1 0-0.2 0-0.4 0.1-0.2 0.1-0.3 0.1-0.2 0.2-0.4 0.1-0.2 0.2-0.3 0.2-0.3 0.5-0.5 0.2-0.2 0.6-0.4 0.3-0.1 0.6-0.2 0.4-0.1 0.7-0.1h9.7q0.3 0 0.7 0.1 0.3 0.1 0.6 0.2 0.4 0.2 0.6 0.4 0.3 0.2 0.5 0.5 0.1 0.2 0.2 0.3 0 0.2 0.1 0.3 0.1 0.2 0.1 0.4 0.1 0.1 0.1 0.3 0 0.1 0.1 0.1 0 0.1 0 0.1 0 0.1 0 0.2 0 0 0 0.1v20.1q0 0.4-0.1 0.8-0.1 0.4-0.4 0.8-0.2 0.4-0.5 0.6-0.3 0.3-0.7 0.5-0.1 0.1-0.3 0.2-0.1 0.1-0.3 0.1-0.2 0.1-0.4 0.1-0.1 0-0.3 0zm-9.7-25.2q-0.2 0-0.5 0.1-0.2 0-0.4 0.1-0.2 0.1-0.4 0.3-0.2 0.1-0.3 0.3-0.1 0.1-0.1 0.2-0.1 0.1-0.1 0.2-0.1 0.1-0.1 0.3-0.1 0.1-0.1 0.2v20.4q0 0.3 0.1 0.6 0.1 0.3 0.2 0.5 0.2 0.3 0.4 0.5 0.2 0.2 0.5 0.3l0.8 0.2h9.7q0.1 0 0.2 0 0.2 0 0.3-0.1 0.1 0 0.2-0.1 0.1 0 0.2-0.1 0.3-0.1 0.5-0.3 0.2-0.2 0.3-0.4 0.2-0.3 0.2-0.5 0.1-0.3 0.1-0.6v-20.1q0 0 0-0.1 0 0 0-0.1 0 0-0.1 0 0-0.1 0-0.1 0-0.1 0-0.2 0-0.2-0.1-0.3 0-0.1-0.1-0.2 0-0.1-0.1-0.2-0.1-0.2-0.3-0.3-0.2-0.2-0.4-0.3-0.2-0.1-0.4-0.1-0.3-0.1-0.5-0.1z"/>
	<path id="Layer" fill-rule="evenodd" class="s0" d="m8.1 28.6q-0.5 0-0.9-0.2-0.4-0.1-0.7-0.4-0.4-0.3-0.6-0.7-0.3-0.4-0.4-0.8l-4.6-17.2q-0.1-0.2-0.1-0.5 0-0.2 0-0.4 0-0.2 0.1-0.5 0-0.2 0.1-0.4 0.1-0.3 0.3-0.6 0.2-0.2 0.4-0.4 0.2-0.2 0.5-0.4 0.3-0.1 0.6-0.2l4.9-1.3q0.1 0 0.1 0 0.1-0.1 0.2 0 0 0 0.1 0 0.1 0 0.1 0.1c0.1 0.1 0.2 0.3 0.1 0.4v20.4q0 0.3 0.1 0.6 0.1 0.3 0.2 0.5 0.2 0.3 0.4 0.5 0.2 0.2 0.5 0.3 0.1 0 0.1 0.1 0.1 0 0.1 0.1 0.1 0.1 0.1 0.1 0 0.1 0 0.2 0 0.1 0 0.2-0.1 0-0.1 0.1-0.1 0-0.1 0.1-0.1 0-0.2 0l-0.6 0.2zm-0.8-22.9l-4.3 1.2q-0.2 0-0.4 0.1-0.1 0.1-0.3 0.3-0.1 0.1-0.2 0.3-0.1 0.1-0.2 0.3-0.1 0.1-0.1 0.3 0 0.1 0 0.2 0 0.2 0 0.3 0 0.2 0 0.3l4.7 17.3q0.1 0.3 0.3 0.5 0.1 0.2 0.3 0.4 0.2 0.1 0.5 0.3 0.2 0.1 0.5 0.1-0.2-0.2-0.3-0.5-0.2-0.2-0.3-0.5-0.1-0.2-0.1-0.5-0.1-0.3-0.1-0.6z"/>
	<path id="Layer" fill-rule="evenodd" class="s0" d="m22.4 28.6h-0.7l-0.7-0.2q-0.1 0-0.1-0.1-0.1 0-0.2-0.1 0-0.1 0-0.1-0.1-0.1-0.1-0.2 0-0.1 0-0.2 0 0 0.1-0.1 0-0.1 0.1-0.1 0-0.1 0.1-0.1 0.3-0.1 0.5-0.3 0.2-0.2 0.3-0.5 0.2-0.2 0.2-0.5 0.1-0.3 0.1-0.6v-20.1q0 0 0-0.1 0 0 0-0.1 0 0-0.1 0 0-0.1 0-0.1 0-0.1 0-0.1 0-0.1 0.1-0.2 0 0 0-0.1 0.1 0 0.1-0.1 0-0.1 0.1-0.1 0.1 0 0.1 0 0.1-0.1 0.2 0 0 0 0.1 0l5.2 1.4q0.3 0.1 0.6 0.2 0.3 0.2 0.5 0.4 0.2 0.2 0.4 0.4 0.2 0.3 0.3 0.6 0.1 0.2 0.1 0.4 0 0.3 0.1 0.5 0 0.2 0 0.4-0.1 0.3-0.1 0.5l-4.6 17.2q-0.1 0.4-0.4 0.8-0.3 0.4-0.6 0.7-0.4 0.3-0.8 0.4-0.4 0.2-0.9 0.2zm-0.2-1.1q0.3 0.1 0.6 0 0.3 0 0.6-0.2 0.3-0.2 0.4-0.4 0.2-0.3 0.3-0.6l4.6-17.3q0-0.1 0.1-0.3 0-0.1 0-0.2 0-0.2 0-0.3-0.1-0.2-0.1-0.3-0.1-0.2-0.2-0.4-0.1-0.1-0.3-0.2-0.1-0.2-0.3-0.3-0.2-0.1-0.4-0.1l-4.5-1.3v19.9q0 0.3 0 0.5-0.1 0.3-0.2 0.6-0.1 0.2-0.3 0.5-0.1 0.2-0.3 0.4z"/>
	<path id="Layer" fill-rule="evenodd" class="s0" d="m20 22.1l-1.1 3.2h-0.5l-1.1-3.2h0.5l0.3 0.9h1.2l0.3-0.9zm-1.8 1.2l0.5 1.5 0.5-1.5z"/>
	<path id="Layer" class="s0" d="m18.9 25.8h-0.5q-0.1 0-0.2-0.1 0 0-0.1 0-0.1-0.1-0.1-0.2-0.1 0-0.1-0.1l-1-3.2q0 0-0.1-0.1 0 0 0-0.1 0-0.1 0-0.1 0.1-0.1 0.1-0.1l0.4-0.2h0.5q0.1 0 0.2 0 0 0 0.1 0.1 0.1 0 0.1 0.1 0.1 0 0.1 0.1v0.6h0.5l0.2-0.6q0-0.1 0.1-0.1 0-0.1 0.1-0.1 0.1-0.1 0.1-0.1 0.1 0 0.2 0h0.5q0.1 0 0.1 0 0.1 0 0.1 0.1 0.1 0 0.1 0 0.1 0.1 0.1 0.1 0 0 0.1 0.1 0 0 0 0.1 0 0 0 0.1 0 0 0 0.1l-1.1 3.2c-0.1 0.2-0.2 0.4-0.5 0.4z"/>
	<path id="Layer" fill-rule="evenodd" class="s0" d="m10.3 8.9l1.1-3.2h0.5l1.1 3.2h-0.5l-0.3-0.9h-1.2l-0.3 0.9zm1.8-1.3l-0.5-1.5-0.5 1.5z"/>
	<path id="Layer" class="s0" d="m13 9.4h-0.5q-0.1 0-0.2-0.1 0 0-0.1 0-0.1-0.1-0.1-0.2-0.1 0-0.1-0.1v-0.5h-0.5l-0.2 0.5q0 0.1-0.1 0.1 0 0.1-0.1 0.2-0.1 0-0.1 0-0.1 0.1-0.2 0.1h-0.4q-0.1 0-0.1 0-0.1 0-0.1-0.1-0.1 0-0.1 0-0.1-0.1-0.1-0.1 0-0.1-0.1-0.1 0-0.1 0-0.1 0-0.1 0-0.2 0 0 0-0.1l1.1-3.2q0-0.1 0.1-0.1 0-0.1 0.1-0.1 0.1-0.1 0.1-0.1 0.1 0 0.2 0h0.5q0.1 0 0.2 0 0 0 0.1 0.1 0.1 0 0.1 0.1 0.1 0 0.1 0.1l1 3.2q0 0.1 0 0.1 0.1 0.1 0.1 0.2 0 0-0.1 0.1 0 0 0 0.1z"/>
	<path id="Layer" class="s0" d="m17.2 18.6q-0.5 0-1-0.2-0.4-0.2-0.8-0.5-0.3-0.4-0.5-0.8-0.2-0.5-0.2-1 0-0.1 0-0.2 0.1-0.1 0.1-0.2 0.1 0 0.2-0.1 0.1 0 0.2 0 0.1 0 0.2 0 0.1 0.1 0.2 0.1 0 0.1 0.1 0.2 0 0.1 0 0.2 0 0.3 0.1 0.6 0.1 0.2 0.3 0.5 0.3 0.2 0.5 0.3 0.3 0.1 0.6 0.1 0.3 0 0.6-0.1 0.3-0.1 0.5-0.3 0.2-0.2 0.4-0.5 0.1-0.3 0.1-0.6c0-1.4-1.8-3.4-3.6-4.9-1.8 1.4-3.7 3.5-3.7 4.9q0 0.3 0.1 0.6 0.2 0.3 0.4 0.5 0.2 0.2 0.5 0.3 0.3 0.1 0.6 0.1l0.6-0.2q0.1 0 0.2-0.1 0.1 0 0.2 0.1 0.1 0 0.2 0.1 0.1 0.1 0.1 0.2 0 0.1 0 0.2 0 0.1 0 0.2 0 0.1-0.1 0.2 0 0-0.1 0.1l-1.1 0.2q-0.5 0-1-0.2-0.5-0.1-0.8-0.5-0.4-0.4-0.6-0.8-0.2-0.5-0.2-1c0-2.3 3-4.9 4.3-5.9q0.1-0.1 0.2-0.1 0.1 0 0.2 0 0 0 0.1 0 0.1 0 0.2 0.1c1.3 1 4.3 3.6 4.3 5.9q0 0.5-0.2 1-0.2 0.4-0.6 0.8-0.3 0.4-0.8 0.5-0.5 0.2-1 0.2z"/>
	<path id="Layer" class="s0" d="m17.7 20.9q-0.1 0-0.2 0-0.1-0.1-0.2-0.1 0-0.1-0.1-0.2 0-0.1 0-0.2 0-0.1-0.1-0.2 0-0.1 0-0.1-0.1-0.1-0.2-0.2 0 0-0.1-0.1-0.2-0.2-0.4-0.3-0.2-0.2-0.4-0.3-0.2-0.1-0.4-0.1-0.3-0.1-0.5-0.1c-1.1 0.1-2 1-2 1.4q0 0.1 0 0.2-0.1 0.1-0.1 0.2-0.1 0-0.2 0.1-0.1 0-0.2 0-0.1 0-0.2-0.1-0.1 0-0.1-0.1-0.1 0-0.1-0.1-0.1-0.1-0.1-0.2c0-1.1 1.5-2.3 2.9-2.4q0.4 0 0.7 0.1 0.3 0 0.7 0.2 0.3 0.1 0.6 0.3 0.3 0.2 0.5 0.5 0.1 0.1 0.3 0.3 0.1 0.1 0.2 0.3 0.1 0.1 0.1 0.3 0.1 0.2 0.1 0.4 0 0.1 0 0.2-0.1 0.1-0.1 0.2-0.1 0-0.2 0.1-0.1 0-0.2 0z"/>
</svg>