<svg version="1.2" xmlns="http://www.w3.org/2000/svg" viewBox="0 0 30 30" width="30" height="30">
	<title>new games-svg</title>
	<style>
		.s0 { fill: #9b9b9b } 
	</style>
	<path id="Layer" fill-rule="evenodd" class="s0" d="m16.2 11.2l0.9 1.8 2 0.3c0.5 0.1 0.9 0.4 1.1 0.9 0.1 0.5 0 1-0.4 1.4l-1.4 1.4 0.3 1.9c0.1 0.4 0 0.8-0.3 1.1-0.2 0.3-0.6 0.5-1 0.5h-0.6l-1.8-1-1.8 1h-0.6c-0.4 0-0.8-0.2-1-0.5-0.3-0.3-0.4-0.7-0.3-1.1l0.3-1.9-1.4-1.4c-0.4-0.4-0.5-0.9-0.4-1.4 0.2-0.5 0.6-0.8 1.1-0.9l2-0.3 0.9-1.8c0.2-0.5 0.7-0.7 1.2-0.7 0.5 0 1 0.2 1.2 0.7zm-1.2 0.4l-0.3 0.2-1 2.1h-0.2l-2.3 0.4c-0.2 0.1-0.3 0.2-0.2 0.4l1.7 1.6c0.1 0 0.1 0.1 0.1 0.2l-0.4 2.3q0 0.3 0.3 0.3h0.1l2.1-1.1h0.2l2.1 1.1h0.1q0.3 0 0.3-0.3l-0.4-2.3c0-0.1 0-0.2 0.1-0.2l1.7-1.7c0.1-0.2 0-0.4-0.2-0.4l-2.3-0.4h-0.2l-1-2.1-0.3-0.2z"/>
	<path id="Layer" fill-rule="evenodd" class="s0" d="m17.1 29.8c-0.5 0-1-0.2-1.3-0.6l-0.8-1.2-0.9 1.2c-0.3 0.5-0.9 0.7-1.5 0.6-0.6-0.1-1.1-0.5-1.3-1.1l-0.4-1.4-1.2 0.8c-0.5 0.4-1.2 0.4-1.7 0.1-0.5-0.3-0.8-0.8-0.8-1.4v-1.5l-1.4 0.4c-0.6 0.2-1.2 0-1.6-0.4-0.4-0.4-0.5-1.1-0.2-1.6l0.5-1.4h-1.5c-0.6 0-1.1-0.4-1.3-0.9-0.3-0.6-0.2-1.2 0.2-1.7l0.9-1.1-1.3-0.6c-0.6-0.2-1-0.7-1-1.3 0-0.6 0.3-1.2 0.8-1.5l1.2-0.7-1.1-1c-0.4-0.4-0.6-1-0.5-1.6 0.2-0.5 0.6-1 1.2-1.1l1.5-0.3-0.8-1.4c-0.3-0.5-0.3-1.1 0.1-1.6 0.3-0.5 0.9-0.8 1.5-0.7l1.4 0.2-0.3-1.5c-0.1-0.6 0.1-1.2 0.6-1.5 0.5-0.4 1.1-0.5 1.7-0.2l1.3 0.6 0.2-1.4c0.1-0.6 0.5-1.1 1-1.3 0.6-0.2 1.2 0 1.6 0.4l1.1 1 0.7-1.3c0.3-0.5 0.8-0.9 1.4-0.9 0.6 0 1.1 0.4 1.4 0.9l0.6 1.3 1.1-1c0.4-0.4 1-0.6 1.6-0.4 0.5 0.2 0.9 0.7 1 1.3l0.2 1.5 1.3-0.6 0.7-0.2c0.9 0 1.6 0.7 1.6 1.6 0 0.1 0 0.3-0.1 0.4l-0.2 1.3h1.6c0.5 0 1 0.3 1.3 0.7 0.3 0.5 0.3 1.1 0 1.6l-0.7 1.3 1.4 0.3c0.6 0.1 1.1 0.5 1.2 1.1 0.2 0.6 0 1.2-0.5 1.5l-1.1 1 1.2 0.8c0.5 0.3 0.9 0.8 0.8 1.4-0.1 0.6-0.5 1.1-1 1.4l-1.4 0.5 1 1.1c0.4 0.5 0.4 1.1 0.2 1.7-0.3 0.5-0.8 0.9-1.4 0.9h-1.4l0.5 1.3c0.2 0.6 0.1 1.2-0.3 1.7-0.4 0.4-1 0.6-1.6 0.4l-1.4-0.4v1.5c0 0.6-0.3 1.1-0.8 1.4-0.5 0.3-1.2 0.2-1.7-0.1l-1.2-0.8-0.4 1.4c-0.2 0.6-0.7 1-1.3 1.1zm-2.1-3.5l1.6 2.3c0.1 0.2 0.3 0.2 0.5 0.2 0.2 0 0.5-0.1 0.5-0.4l0.9-2.7 2.3 1.7q0.3 0.2 0.6 0c0.2-0.1 0.3-0.3 0.3-0.5v-2.9l2.8 0.8c0.2 0.1 0.4 0 0.5-0.1 0.2-0.2 0.2-0.4 0.1-0.6l-1-2.7h2.9c0.2 0 0.4-0.1 0.5-0.3 0.1-0.2 0-0.4-0.1-0.6l-1.8-2.2 2.6-1.1c0.2-0.1 0.4-0.2 0.4-0.5 0-0.2-0.1-0.4-0.3-0.5l-2.4-1.5 2.1-1.9c0.1-0.2 0.2-0.4 0.1-0.6 0-0.2-0.2-0.4-0.4-0.4l-2.8-0.6 1.5-2.5q0.2-0.3 0-0.6c-0.1-0.2-0.3-0.2-0.5-0.2l-2.9 0.3 0.6-2.7v-0.2c0-0.3-0.3-0.6-0.6-0.6h-0.2l-2.6 1.3-0.4-2.9c0-0.2-0.1-0.3-0.3-0.4-0.2-0.1-0.4 0-0.6 0.1l-2.1 2-1.2-2.6c-0.1-0.2-0.3-0.3-0.5-0.3-0.2 0-0.5 0.1-0.6 0.3l-1.2 2.6-2.1-2c-0.1-0.2-0.3-0.2-0.5-0.2-0.2 0.1-0.4 0.3-0.4 0.5l-0.4 2.8-2.6-1.2c-0.2-0.1-0.4-0.1-0.6 0.1-0.1 0.1-0.2 0.3-0.2 0.5l0.6 2.8-2.9-0.3c-0.2-0.1-0.4 0.1-0.5 0.2q-0.2 0.3 0 0.6l1.4 2.5-2.8 0.6c-0.2 0-0.4 0.2-0.4 0.4-0.1 0.2 0 0.4 0.2 0.6l2.1 1.8-2.4 1.5c-0.2 0.1-0.3 0.3-0.3 0.5 0 0.3 0.2 0.4 0.4 0.5l2.6 1.1-1.8 2.2c-0.2 0.1-0.2 0.4-0.1 0.6 0.1 0.2 0.3 0.3 0.5 0.3l2.8 0.2-1 2.6c-0.1 0.2 0 0.4 0.1 0.6 0.1 0.2 0.4 0.2 0.6 0.2l2.7-0.8v2.8c0 0.2 0.1 0.5 0.3 0.6 0.2 0.1 0.4 0 0.6-0.1l2.3-1.6 0.9 2.7c0 0.2 0.2 0.4 0.4 0.4 0.2 0.1 0.4 0 0.6-0.2zm8-20.5v-1z"/>
</svg>