<svg version="1.2" xmlns="http://www.w3.org/2000/svg" viewBox="0 0 30 30" width="30" height="30">
	<title>plus icon-svg</title>
	<style>
		.s0 { fill: #fff209 } 
	</style>
	<path id="Layer" fill-rule="evenodd" class="s0" d="m24.6 3.6c2.6 2.1 4.4 5 5.1 8.2 0.7 3.3 0.2 6.6-1.2 9.6-1.5 3-4 5.3-7 6.7q-0.7 0.3-1.4 0.6-0.8 0.2-1.5 0.4-0.8 0.2-1.6 0.2-0.7 0.1-1.5 0.1-2.1 0-4.1-0.6-2-0.6-3.8-1.7-1.7-1.1-3.1-2.7-1.3-1.6-2.2-3.5c-0.8-1.7-1.2-3.6-1.3-5.5 0-1.9 0.3-3.8 0.9-5.6 0.7-1.7 1.7-3.4 3-4.8 1.2-1.4 2.8-2.5 4.5-3.3q0.7-0.3 1.5-0.5 0.7-0.3 1.5-0.4 0.8-0.2 1.5-0.3 0.8-0.1 1.6-0.1c3.3 0 6.5 1.1 9.1 3.2zm-10.5-1.4q-0.7 0-1.4 0.2-0.6 0.1-1.3 0.3-0.7 0.2-1.3 0.5c-2.7 1.2-4.8 3.3-6.1 6-1.3 2.6-1.7 5.6-1.1 8.5 0.7 2.8 2.3 5.4 4.5 7.2 2.3 1.9 5.2 2.9 8.1 2.9q0.7 0 1.4-0.1 0.6-0.1 1.3-0.2 0.7-0.2 1.3-0.4 0.7-0.2 1.3-0.5c1.5-0.7 2.9-1.7 4.1-2.9 1.1-1.3 2-2.7 2.6-4.3 0.6-1.6 0.9-3.2 0.8-4.9 0-1.7-0.4-3.4-1.1-4.9q-0.8-1.7-2-3.1-1.2-1.3-2.8-2.3-1.5-1-3.3-1.6-1.8-0.5-3.6-0.5-0.7 0-1.4 0.1z"/>
	<path id="Layer" class="s0" d="m14.7 9.8c0-0.3 0.3-0.6 0.6-0.6h0.5c0.3 0 0.6 0.3 0.6 0.6v10.3c0 0.3-0.3 0.6-0.6 0.6h-0.5c-0.3 0-0.6-0.3-0.6-0.6z"/>
	<path id="Layer" class="s0" d="m20.7 14.1c0.3 0 0.6 0.3 0.6 0.6v0.5c0 0.3-0.3 0.6-0.6 0.6h-10.3c-0.3 0-0.6-0.3-0.6-0.6v-0.5c0-0.3 0.3-0.6 0.6-0.6z"/>
</svg>