<svg version="1.2" xmlns="http://www.w3.org/2000/svg" viewBox="0 0 30 30" width="30" height="30">
	<title>popular slot-svg</title>
	<style>
		.s0 { fill: #9b9b9b } 
	</style>
	<path id="Layer" fill-rule="evenodd" class="s0" d="m15 29.2l-0.3-0.2c-14.3-7.7-14.7-15.7-14.3-18.8 0.5-3.6 3.2-6.5 6.7-7.3 3.1-0.6 6.2 0.8 7.9 3.4 1.7-2.6 4.8-4 7.9-3.4 3.5 0.8 6.2 3.7 6.7 7.3 0.4 3.1 0 11.1-14.3 18.8zm-6.4-25.2l-1.3 0.2c-3 0.7-5.2 3.2-5.6 6.2-0.4 2.8 0.1 10 13.3 17.3 13.2-7.3 13.7-14.5 13.3-17.3-0.4-3-2.6-5.5-5.6-6.2-2.8-0.6-5.4 0.7-7.1 3.6l-0.6 1-0.6-1c-1.5-2.4-3.6-3.8-5.8-3.8z"/>
</svg>