<svg version="1.2" xmlns="http://www.w3.org/2000/svg" viewBox="0 0 30 30" width="30" height="30">
	<title>video slots-svg</title>
	<style>
		.s0 { fill: #fff209 } 
	</style>
	<path id="Layer" fill-rule="evenodd" class="s0" d="m15 30c-8.3 0.1-15-6.6-15.1-14.9 0-6 3.5-11.4 8.9-13.8 1.9-0.9 4.1-1.3 6.2-1.3 8.3-0.1 15 6.6 15.1 14.9 0 6-3.5 11.4-8.9 13.8-1.9 0.9-4.1 1.3-6.2 1.3zm0-28.7c-7.6 0-13.7 6.1-13.7 13.7q0 3 1.2 5.7c2.2 4.9 7.1 8 12.5 8q3 0 5.7-1.2c3.3-1.5 5.9-4.3 7.2-7.7 1.2-3.4 1.1-7.2-0.4-10.5-2.2-4.9-7.1-8-12.5-8z"/>
	<path id="Layer" fill-rule="evenodd" class="s0" d="m15.4 10.3l4.2 3.3c0.5 0.4 0.7 1.1 0.7 1.7 0 0.7-0.3 1.3-0.9 1.6l-4.1 2.9c-0.3 0.3-0.8 0.4-1.2 0.4-1.2 0-2.1-0.9-2.1-2.1v-6.2c0-1.2 0.9-2.1 2.1-2.1 0.5-0.1 1 0.1 1.3 0.5zm-1.4 0.8c-0.4 0.1-0.7 0.4-0.6 0.8v6.3c0 0.4 0.3 0.7 0.7 0.7 0.2 0 0.3-0.1 0.4-0.2l4.2-2.9 0.1-0.1c0.3-0.3 0.2-0.8-0.1-1l-4.1-3.4-0.5-0.2c0 0-0.1 0-0.1 0z"/>
</svg>